<svg xmlns="http://www.w3.org/2000/svg" width="1200" height="420" viewBox="0 0 1200 420" role="img" aria-labelledby="title desc">
  <title id="title">事实准确性审核记录</title>
  <desc id="desc">暖米白背景、珊瑚色强调和深色数据卡片组成的静态审核报告封面。</desc>

  <rect width="1200" height="420" rx="24" fill="#faf9f5"/>
  <rect x="1" y="1" width="1198" height="418" rx="23" fill="none" stroke="#e6dfd8" stroke-width="2"/>

  <g transform="translate(72 66)">
    <g fill="#141413">
      <path d="M14 0h4v36h-4z"/>
      <path d="M0 14h36v4H0z"/>
      <path d="m4.7 2 2.8-2.8 24 24-2.8 2.8z"/>
      <path d="m31.3 2 2.8 2.8-24 24-2.8-2.8z"/>
    </g>
    <text x="54" y="24" fill="#6c6a64" font-family="Inter, Arial, sans-serif" font-size="14" font-weight="600" letter-spacing="2">WEB NOTES · FACT REVIEW</text>
  </g>

  <text x="72" y="168" fill="#141413" font-family="Cormorant Garamond, EB Garamond, Georgia, serif" font-size="62" font-weight="500" letter-spacing="-1.5">事实准确性审核记录</text>
  <text x="74" y="212" fill="#3d3d3a" font-family="Inter, Arial, sans-serif" font-size="20">用一手资料校准版本、兼容性、标准语法与工程边界</text>

  <g transform="translate(74 260)">
    <rect width="122" height="34" rx="17" fill="#cc785c"/>
    <text x="61" y="22" text-anchor="middle" fill="#ffffff" font-family="Inter, Arial, sans-serif" font-size="13" font-weight="600" letter-spacing="1">持续审核</text>

    <rect x="138" width="174" height="34" rx="17" fill="#efe9de"/>
    <text x="225" y="22" text-anchor="middle" fill="#252523" font-family="Inter, Arial, sans-serif" font-size="13" font-weight="600">更新于 2026-08-12</text>
  </g>

  <g transform="translate(768 62)">
    <rect width="360" height="296" rx="16" fill="#181715"/>
    <circle cx="28" cy="27" r="5" fill="#cc785c"/>
    <circle cx="46" cy="27" r="5" fill="#e8a55a"/>
    <circle cx="64" cy="27" r="5" fill="#5db8a6"/>
    <text x="28" y="72" fill="#a09d96" font-family="JetBrains Mono, monospace" font-size="13">AUDIT SNAPSHOT</text>

    <text x="28" y="128" fill="#faf9f5" font-family="Cormorant Garamond, EB Garamond, Georgia, serif" font-size="42">616</text>
    <text x="126" y="126" fill="#a09d96" font-family="Inter, Arial, sans-serif" font-size="14">Markdown 文档</text>
    <line x1="28" y1="148" x2="332" y2="148" stroke="#252320" stroke-width="2"/>

    <text x="28" y="204" fill="#faf9f5" font-family="Cormorant Garamond, EB Garamond, Georgia, serif" font-size="42">12</text>
    <text x="126" y="202" fill="#a09d96" font-family="Inter, Arial, sans-serif" font-size="14">已确认修正</text>
    <line x1="28" y1="224" x2="332" y2="224" stroke="#252320" stroke-width="2"/>

    <text x="28" y="276" fill="#5db872" font-family="JetBrains Mono, monospace" font-size="18" font-weight="600">0 broken links</text>
  </g>

  <rect x="0" y="400" width="1200" height="20" rx="0" fill="#cc785c"/>
</svg>
